<svg width="63" height="64" viewBox="0 0 63 64" fill="none" xmlns="http://www.w3.org/2000/svg">
<circle cx="31.5" cy="32.0049" r="31.5" fill="#FFB783"/>
<mask id="path-2-inside-1_319_1315" fill="white">
<path d="M20.0118 49.5049C18.9007 49.5049 17.9852 48.5996 18.1443 47.5C18.3105 46.3511 18.6194 45.2247 19.0657 44.1473C19.7693 42.4488 20.8005 40.9054 22.1005 39.6054C23.4005 38.3054 24.9439 37.2741 26.6424 36.5706C28.341 35.867 30.1615 35.5049 32 35.5049C33.8385 35.5049 35.659 35.867 37.3576 36.5706C39.0561 37.2741 40.5995 38.3054 41.8995 39.6054C43.1995 40.9054 44.2307 42.4488 44.9343 44.1473C45.3806 45.2247 45.6895 46.3511 45.8557 47.5C46.0148 48.5996 45.0993 49.5049 43.9882 49.5049C42.8771 49.5049 41.9968 48.5953 41.7743 47.5067C41.6472 46.8853 41.4609 46.2759 41.217 45.6871C40.7157 44.4767 39.9808 43.3769 39.0544 42.4505C38.128 41.5241 37.0282 40.7892 35.8178 40.2879C34.6074 39.7865 33.3101 39.5284 32 39.5284C30.6899 39.5284 29.3926 39.7865 28.1822 40.2878C26.9718 40.7892 25.872 41.5241 24.9456 42.4505C24.0192 43.3769 23.2843 44.4767 22.783 45.6871C22.5391 46.2759 22.3528 46.8853 22.2257 47.5067C22.0032 48.5953 21.1229 49.5049 20.0118 49.5049Z"/>
</mask>
<path d="M20.0118 49.5049C18.9007 49.5049 17.9852 48.5996 18.1443 47.5C18.3105 46.3511 18.6194 45.2247 19.0657 44.1473C19.7693 42.4488 20.8005 40.9054 22.1005 39.6054C23.4005 38.3054 24.9439 37.2741 26.6424 36.5706C28.341 35.867 30.1615 35.5049 32 35.5049C33.8385 35.5049 35.659 35.867 37.3576 36.5706C39.0561 37.2741 40.5995 38.3054 41.8995 39.6054C43.1995 40.9054 44.2307 42.4488 44.9343 44.1473C45.3806 45.2247 45.6895 46.3511 45.8557 47.5C46.0148 48.5996 45.0993 49.5049 43.9882 49.5049C42.8771 49.5049 41.9968 48.5953 41.7743 47.5067C41.6472 46.8853 41.4609 46.2759 41.217 45.6871C40.7157 44.4767 39.9808 43.3769 39.0544 42.4505C38.128 41.5241 37.0282 40.7892 35.8178 40.2879C34.6074 39.7865 33.3101 39.5284 32 39.5284C30.6899 39.5284 29.3926 39.7865 28.1822 40.2878C26.9718 40.7892 25.872 41.5241 24.9456 42.4505C24.0192 43.3769 23.2843 44.4767 22.783 45.6871C22.5391 46.2759 22.3528 46.8853 22.2257 47.5067C22.0032 48.5953 21.1229 49.5049 20.0118 49.5049Z" stroke="black" stroke-width="6" mask="url(#path-2-inside-1_319_1315)"/>
</svg>
