<svg width="63" height="64" viewBox="0 0 63 64" fill="none" xmlns="http://www.w3.org/2000/svg">
<circle cx="31.5" cy="32.0049" r="31.5" fill="#52B680"/>
<mask id="path-2-inside-1_319_1317" fill="white">
<path d="M44 35.5049C45.1046 35.5049 46.0146 36.4048 45.8574 37.4981C45.6915 38.6511 45.3821 39.7815 44.9343 40.8625C44.2307 42.561 43.1995 44.1044 41.8995 45.4044C40.5995 46.7044 39.0561 47.7356 37.3576 48.4392C35.659 49.1428 33.8385 49.5049 32 49.5049C30.1615 49.5049 28.341 49.1428 26.6424 48.4392C24.9439 47.7356 23.4005 46.7044 22.1005 45.4044C20.8005 44.1044 19.7693 42.561 19.0657 40.8624C18.6179 39.7815 18.3085 38.6511 18.1426 37.4981C17.9854 36.4048 18.8954 35.5049 20 35.5049L32 35.5049H44Z"/>
</mask>
<path d="M44 35.5049C45.1046 35.5049 46.0146 36.4048 45.8574 37.4981C45.6915 38.6511 45.3821 39.7815 44.9343 40.8625C44.2307 42.561 43.1995 44.1044 41.8995 45.4044C40.5995 46.7044 39.0561 47.7356 37.3576 48.4392C35.659 49.1428 33.8385 49.5049 32 49.5049C30.1615 49.5049 28.341 49.1428 26.6424 48.4392C24.9439 47.7356 23.4005 46.7044 22.1005 45.4044C20.8005 44.1044 19.7693 42.561 19.0657 40.8624C18.6179 39.7815 18.3085 38.6511 18.1426 37.4981C17.9854 36.4048 18.8954 35.5049 20 35.5049L32 35.5049H44Z" stroke="black" stroke-width="6" mask="url(#path-2-inside-1_319_1317)"/>
</svg>
