<svg width="62" height="64" viewBox="0 0 62 64" fill="none" xmlns="http://www.w3.org/2000/svg">
<ellipse cx="31" cy="32.0049" rx="31" ry="31.5" fill="#BDEDC5"/>
<mask id="path-2-inside-1_319_1318" fill="white">
<path d="M42.9882 35.5049C44.0993 35.5049 45.0148 36.4101 44.8557 37.5098C44.6895 38.6587 44.3806 39.7851 43.9343 40.8625C43.2307 42.561 42.1995 44.1044 40.8995 45.4044C39.5995 46.7044 38.0561 47.7356 36.3576 48.4392C34.659 49.1428 32.8385 49.5049 31 49.5049C29.1615 49.5049 27.341 49.1428 25.6424 48.4392C23.9439 47.7356 22.4005 46.7044 21.1005 45.4044C19.8005 44.1044 18.7693 42.561 18.0657 40.8624C17.6194 39.7851 17.3105 38.6587 17.1443 37.5098C16.9852 36.4101 17.9007 35.5049 19.0118 35.5049C20.1229 35.5049 21.0032 36.4145 21.2257 37.5031C21.3528 38.1245 21.5391 38.7339 21.783 39.3227C22.2843 40.5331 23.0192 41.6329 23.9456 42.5593C24.872 43.4857 25.9718 44.2206 27.1822 44.7219C28.3926 45.2233 29.6899 45.4813 31 45.4813C32.3101 45.4813 33.6074 45.2233 34.8178 44.7219C36.0282 44.2206 37.128 43.4857 38.0544 42.5593C38.9808 41.6329 39.7157 40.5331 40.217 39.3227C40.4609 38.7339 40.6472 38.1245 40.7743 37.5031C40.9968 36.4145 41.8771 35.5049 42.9882 35.5049Z"/>
</mask>
<path d="M42.9882 35.5049C44.0993 35.5049 45.0148 36.4101 44.8557 37.5098C44.6895 38.6587 44.3806 39.7851 43.9343 40.8625C43.2307 42.561 42.1995 44.1044 40.8995 45.4044C39.5995 46.7044 38.0561 47.7356 36.3576 48.4392C34.659 49.1428 32.8385 49.5049 31 49.5049C29.1615 49.5049 27.341 49.1428 25.6424 48.4392C23.9439 47.7356 22.4005 46.7044 21.1005 45.4044C19.8005 44.1044 18.7693 42.561 18.0657 40.8624C17.6194 39.7851 17.3105 38.6587 17.1443 37.5098C16.9852 36.4101 17.9007 35.5049 19.0118 35.5049C20.1229 35.5049 21.0032 36.4145 21.2257 37.5031C21.3528 38.1245 21.5391 38.7339 21.783 39.3227C22.2843 40.5331 23.0192 41.6329 23.9456 42.5593C24.872 43.4857 25.9718 44.2206 27.1822 44.7219C28.3926 45.2233 29.6899 45.4813 31 45.4813C32.3101 45.4813 33.6074 45.2233 34.8178 44.7219C36.0282 44.2206 37.128 43.4857 38.0544 42.5593C38.9808 41.6329 39.7157 40.5331 40.217 39.3227C40.4609 38.7339 40.6472 38.1245 40.7743 37.5031C40.9968 36.4145 41.8771 35.5049 42.9882 35.5049Z" stroke="black" stroke-width="6" mask="url(#path-2-inside-1_319_1318)"/>
</svg>
