<svg width="62" height="64" viewBox="0 0 62 64" fill="none" xmlns="http://www.w3.org/2000/svg">
<ellipse cx="31" cy="32.0049" rx="31" ry="31.5" fill="#D06565"/>
<mask id="path-2-inside-1_319_1316" fill="white">
<path d="M19 49.5049C17.8954 49.5049 16.9854 48.605 17.1426 47.5117C17.3085 46.3587 17.6179 45.2283 18.0657 44.1473C18.7693 42.4488 19.8005 40.9054 21.1005 39.6054C22.4005 38.3054 23.9439 37.2741 25.6424 36.5706C27.341 35.867 29.1615 35.5049 31 35.5049C32.8385 35.5049 34.659 35.867 36.3576 36.5706C38.0561 37.2741 39.5995 38.3054 40.8995 39.6054C42.1995 40.9054 43.2307 42.4488 43.9343 44.1473C44.3821 45.2283 44.6915 46.3587 44.8574 47.5117C45.0146 48.605 44.1046 49.5049 43 49.5049L31 49.5049L19 49.5049Z"/>
</mask>
<path d="M19 49.5049C17.8954 49.5049 16.9854 48.605 17.1426 47.5117C17.3085 46.3587 17.6179 45.2283 18.0657 44.1473C18.7693 42.4488 19.8005 40.9054 21.1005 39.6054C22.4005 38.3054 23.9439 37.2741 25.6424 36.5706C27.341 35.867 29.1615 35.5049 31 35.5049C32.8385 35.5049 34.659 35.867 36.3576 36.5706C38.0561 37.2741 39.5995 38.3054 40.8995 39.6054C42.1995 40.9054 43.2307 42.4488 43.9343 44.1473C44.3821 45.2283 44.6915 46.3587 44.8574 47.5117C45.0146 48.605 44.1046 49.5049 43 49.5049L31 49.5049L19 49.5049Z" stroke="black" stroke-width="6" mask="url(#path-2-inside-1_319_1316)"/>
</svg>
