<svg width="36" height="36" viewBox="0 0 36 36" fill="none" xmlns="http://www.w3.org/2000/svg">
<path d="M32 3.78947H30V0.947368C30 0.424151 29.5523 0 29 0H27C26.4477 0 26 0.424151 26 0.947368V3.78947H10V0.947368C10 0.424151 9.55228 0 9 0H7C6.44772 0 6 0.424151 6 0.947368V3.78947H4C1.79086 3.78947 0 5.48608 0 7.57895V32.2105C0 34.3034 1.79086 36 4 36H32C34.2091 36 36 34.3034 36 32.2105V7.57895C36 5.48608 34.2091 3.78947 32 3.78947ZM32 32.2105H4V11.3684H32V32.2105ZM17 18.9474H19C19.5523 18.9474 20 18.5232 20 18V16.1053C20 15.582 19.5523 15.1579 19 15.1579H17C16.4477 15.1579 16 15.582 16 16.1053V18C16 18.5232 16.4477 18.9474 17 18.9474ZM25 18.9474H27C27.5523 18.9474 28 18.5232 28 18V16.1053C28 15.582 27.5523 15.1579 27 15.1579H25C24.4477 15.1579 24 15.582 24 16.1053V18C24 18.5232 24.4477 18.9474 25 18.9474ZM9 18.9474H11C11.5523 18.9474 12 18.5232 12 18V16.1053C12 15.582 11.5523 15.1579 11 15.1579H9C8.44772 15.1579 8 15.582 8 16.1053V18C8 18.5232 8.44772 18.9474 9 18.9474ZM17 26.5263H19C19.5523 26.5263 20 26.1022 20 25.5789V23.6842C20 23.161 19.5523 22.7368 19 22.7368H17C16.4477 22.7368 16 23.161 16 23.6842V25.5789C16 26.1022 16.4477 26.5263 17 26.5263ZM9 26.5263H11C11.5523 26.5263 12 26.1022 12 25.5789V23.6842C12 23.161 11.5523 22.7368 11 22.7368H9C8.44772 22.7368 8 23.161 8 23.6842V25.5789C8 26.1022 8.44772 26.5263 9 26.5263Z" fill="white"/>
</svg>
