<svg width="16" height="17" viewBox="0 0 16 17" fill="none" xmlns="http://www.w3.org/2000/svg">
<path d="M0.292893 0.788011C0.683418 0.397486 1.31658 0.397486 1.70711 0.788011L8 7.08012L14.2929 0.788011C14.6534 0.427527 15.2206 0.399797 15.6129 0.704822L15.7071 0.788011C16.0976 1.17853 16.0976 1.8117 15.7071 2.20222L9.415 8.49512L15.7071 14.788C16.0676 15.1485 16.0953 15.7157 15.7903 16.108L15.7071 16.2022C15.3166 16.5927 14.6834 16.5927 14.2929 16.2022L8 9.91012L1.70711 16.2022C1.34662 16.5627 0.779392 16.5904 0.387101 16.2854L0.292893 16.2022C-0.0976309 15.8117 -0.0976309 15.1785 0.292893 14.788L6.585 8.49512L0.292893 2.20222C-0.0675905 1.84174 -0.0953204 1.27451 0.209704 0.882218L0.292893 0.788011Z" fill="#2688EB"/>
</svg>
