<svg width="42" height="36" viewBox="0 0 42 36" fill="none" xmlns="http://www.w3.org/2000/svg">
<mask id="path-1-inside-1_807_86" fill="white">
<path d="M30.969 20.2349C32.0018 20.3096 32.79 21.2091 32.6065 22.2282C32.0726 25.1951 30.7656 27.9728 28.8083 30.26C26.4472 33.0191 23.2692 34.9131 19.7584 35.6535C16.2476 36.3939 12.5965 35.9401 9.36113 34.3613C6.1258 32.7824 3.4836 30.1651 1.837 26.9079C0.190404 23.6507 -0.370335 19.9322 0.240197 16.3188C0.850729 12.7054 2.59907 9.39518 5.2189 6.89236C7.83873 4.38954 11.1865 2.8313 14.7521 2.45499C17.6977 2.14414 20.6586 2.65391 23.3267 3.91336C24.2672 4.35729 24.5455 5.52349 24.0147 6.41784C23.4687 7.33803 22.2767 7.61505 21.2914 7.19764C19.3558 6.37762 17.2417 6.0569 15.1378 6.27894C12.3872 6.56923 9.80474 7.77126 7.78379 9.70195C5.76284 11.6326 4.41417 14.1862 3.9432 16.9735C3.47223 19.7609 3.90479 22.6294 5.17498 25.142C6.44517 27.6546 8.48338 29.6737 10.9791 30.8916C13.4749 32.1095 16.2914 32.4596 18.9996 31.8884C21.7079 31.3173 24.1594 29.8562 25.9808 27.7279C27.3952 26.075 28.3695 24.0899 28.8256 21.9639C29.0438 20.9469 29.9315 20.1598 30.969 20.2349Z"/>
</mask>
<path d="M30.969 20.2349C32.0018 20.3096 32.79 21.2091 32.6065 22.2282C32.0726 25.1951 30.7656 27.9728 28.8083 30.26C26.4472 33.0191 23.2692 34.9131 19.7584 35.6535C16.2476 36.3939 12.5965 35.9401 9.36113 34.3613C6.1258 32.7824 3.4836 30.1651 1.837 26.9079C0.190404 23.6507 -0.370335 19.9322 0.240197 16.3188C0.850729 12.7054 2.59907 9.39518 5.2189 6.89236C7.83873 4.38954 11.1865 2.8313 14.7521 2.45499C17.6977 2.14414 20.6586 2.65391 23.3267 3.91336C24.2672 4.35729 24.5455 5.52349 24.0147 6.41784C23.4687 7.33803 22.2767 7.61505 21.2914 7.19764C19.3558 6.37762 17.2417 6.0569 15.1378 6.27894C12.3872 6.56923 9.80474 7.77126 7.78379 9.70195C5.76284 11.6326 4.41417 14.1862 3.9432 16.9735C3.47223 19.7609 3.90479 22.6294 5.17498 25.142C6.44517 27.6546 8.48338 29.6737 10.9791 30.8916C13.4749 32.1095 16.2914 32.4596 18.9996 31.8884C21.7079 31.3173 24.1594 29.8562 25.9808 27.7279C27.3952 26.075 28.3695 24.0899 28.8256 21.9639C29.0438 20.9469 29.9315 20.1598 30.969 20.2349Z" stroke="white" stroke-width="8" mask="url(#path-1-inside-1_807_86)"/>
<path d="M23.2663 15.4498L30.0229 7.52426L33.1729 12.6419L23.2663 15.4498Z" fill="white" stroke="white" stroke-width="4"/>
</svg>
